<svg version="1.0" xmlns="http://www.w3.org/2000/svg"
 width="16" height="16" viewBox="0 0 16 16"
 preserveAspectRatio="xMidYMid meet">

<g transform="translate(0.000000,1280.000000) scale(0.100000,-0.100000)"
fill="#000000" stroke="none">
<path d="M8695 5596 c-16 -8 -128 -112 -247 -233 l-218 -218 258 -258 257
-257 230 230 230 230 0 55 0 55 -190 191 c-219 220 -247 238 -320 205z"/>
<path d="M6508 2959 c-43 -39 -78 -78 -78 -88 0 -21 19 -41 40 -41 17 0 160
139 160 156 0 10 -32 44 -41 44 -2 0 -39 -32 -81 -71z"/>
</g>
</svg>